<?xml version="1.0" encoding="utf-8"?>
<!-- Generator: Adobe Illustrator 16.0.0, SVG Export Plug-In . SVG Version: 6.00 Build 0)  -->
<!DOCTYPE svg PUBLIC "-//W3C//DTD SVG 1.1//EN" "http://www.w3.org/Graphics/SVG/1.1/DTD/svg11.dtd">
<svg version="1.1" id="Layer_2" xmlns="http://www.w3.org/2000/svg" xmlns:xlink="http://www.w3.org/1999/xlink" x="0px" y="0px"
	 width="585.29px" height="202.151px" viewBox="3.71 19.264 585.29 202.151" enable-background="new 3.71 19.264 585.29 202.151"
	 xml:space="preserve">
<path fill="#37393C" d="M47.719,143.094c0,1.074-0.383,1.994-1.147,2.759c-0.765,0.765-1.685,1.147-2.759,1.147
	s-1.994-0.382-2.759-1.147c-0.765-0.765-1.147-1.685-1.147-2.759V96.219c0-1.074,0.382-1.994,1.147-2.759
	c0.765-0.765,1.685-1.147,2.759-1.147s1.994,0.383,2.759,1.147c0.765,0.765,1.147,1.685,1.147,2.759v1.025
	c3.874-3.288,8.431-4.932,13.672-4.932c5.924,0,10.986,2.1,15.186,6.299c0.879,0.879,1.676,1.807,2.393,2.783
	c0.716-0.977,1.514-1.904,2.393-2.783c4.199-4.199,9.261-6.299,15.186-6.299c5.924,0,10.986,2.1,15.186,6.299
	c4.2,4.199,6.299,9.261,6.299,15.186v29.297c0,1.074-0.383,1.994-1.147,2.759c-0.765,0.765-1.685,1.147-2.759,1.147
	c-1.074,0-1.994-0.382-2.759-1.147c-0.765-0.765-1.147-1.685-1.147-2.759v-29.297c0-3.776-1.335-6.999-4.004-9.668
	c-2.669-2.669-5.892-4.004-9.668-4.004c-3.776,0-6.999,1.335-9.668,4.004s-4.004,5.892-4.004,9.668v29.297
	c0,1.074-0.383,1.994-1.147,2.759c-0.765,0.765-1.685,1.147-2.759,1.147c-1.074,0-1.994-0.382-2.759-1.147s-1.147-1.685-1.147-2.759
	v-29.297c0-3.776-1.335-6.999-4.004-9.668s-5.892-4.004-9.668-4.004s-6.999,1.335-9.668,4.004s-4.004,5.892-4.004,9.668v29.297
	H47.719z"/>
<path fill="#37393C" d="M136.156,143.094c0,1.074-0.383,1.994-1.147,2.759c-0.765,0.765-1.685,1.147-2.759,1.147
	s-1.994-0.382-2.759-1.147c-0.765-0.765-1.147-1.685-1.147-2.759V96.219c0-1.074,0.382-1.994,1.147-2.759
	c0.765-0.765,1.685-1.147,2.759-1.147s1.994,0.383,2.759,1.147c0.765,0.765,1.147,1.685,1.147,2.759v1.025
	c3.874-3.288,8.431-4.932,13.672-4.932c5.924,0,10.986,2.1,15.186,6.299c0.879,0.879,1.676,1.807,2.393,2.783
	c0.716-0.977,1.514-1.904,2.393-2.783c4.199-4.199,9.261-6.299,15.186-6.299c5.924,0,10.986,2.1,15.186,6.299
	c4.2,4.199,6.299,9.261,6.299,15.186v29.297c0,1.074-0.383,1.994-1.147,2.759c-0.765,0.765-1.685,1.147-2.759,1.147
	c-1.074,0-1.994-0.382-2.759-1.147c-0.765-0.765-1.147-1.685-1.147-2.759v-29.297c0-3.776-1.335-6.999-4.004-9.668
	c-2.669-2.669-5.892-4.004-9.668-4.004c-3.776,0-6.999,1.335-9.668,4.004s-4.004,5.892-4.004,9.668v29.297
	c0,1.074-0.383,1.994-1.147,2.759c-0.765,0.765-1.685,1.147-2.759,1.147c-1.074,0-1.994-0.382-2.759-1.147s-1.147-1.685-1.147-2.759
	v-29.297c0-3.776-1.335-6.999-4.004-9.668s-5.892-4.004-9.668-4.004s-6.999,1.335-9.668,4.004s-4.004,5.892-4.004,9.668v29.297
	H136.156z"/>
<path fill="#37393C" d="M257.664,133.719c1.074,0,1.994,0.383,2.759,1.147c0.765,0.765,1.147,1.685,1.147,2.759
	s-0.375,2.002-1.123,2.783c-5.046,4.395-10.986,6.592-17.822,6.592c-7.552,0-13.998-2.669-19.336-8.008
	c-5.339-5.338-8.008-11.784-8.008-19.336c0-7.552,2.669-13.997,8.008-19.336c5.338-5.338,11.784-8.008,19.336-8.008
	c7.552,0,13.997,2.669,19.336,8.008c5.338,5.339,8.008,11.784,8.008,19.336c0,1.074-0.383,1.994-1.147,2.759
	c-0.765,0.765-1.685,1.147-2.759,1.147h-42.627c0.716,3.744,2.506,7.048,5.371,9.912c3.809,3.809,8.415,5.713,13.818,5.713
	c4.883,0,9.082-1.546,12.598-4.639C255.938,133.996,256.752,133.719,257.664,133.719z M261.814,115.75
	c-0.716-3.743-2.507-7.047-5.371-9.912c-3.809-3.809-8.415-5.713-13.818-5.713c-5.404,0-10.01,1.904-13.818,5.713
	c-2.865,2.865-4.655,6.169-5.371,9.912H261.814z"/>
<path fill="#37393C" d="M278.781,96.219c0-1.074,0.382-1.994,1.147-2.759c0.765-0.765,1.685-1.147,2.759-1.147
	s1.994,0.383,2.759,1.147c0.765,0.765,1.147,1.685,1.147,2.759v4.297c5.469-5.469,11.979-8.203,19.531-8.203
	c3.809,0,7.308,0.651,10.498,1.953c0.586,0.228,1.123,0.57,1.611,1.025c0.748,0.781,1.123,1.709,1.123,2.783
	c0,1.074-0.384,1.994-1.147,2.759c-0.766,0.765-1.685,1.147-2.759,1.147c-0.619,0-1.188-0.13-1.709-0.391
	c-2.313-0.977-4.852-1.465-7.617-1.465c-5.404,0-10.01,1.904-13.818,5.713c-3.808,3.809-5.713,8.415-5.713,13.818v23.438
	c0,1.074-0.383,1.994-1.147,2.759c-0.765,0.765-1.685,1.147-2.759,1.147c-1.074,0-1.994-0.382-2.759-1.147
	c-0.765-0.765-1.147-1.685-1.147-2.759L278.781,96.219L278.781,96.219z"/>
<path fill="#37393C" d="M334.324,119.656c-2.963-1.106-5.029-2.262-6.201-3.467c-2.313-2.278-3.467-5.029-3.467-8.252
	s1.204-6.038,3.612-8.447c4.688-4.785,10.808-7.178,18.359-7.178c8.17,0,15.169,3.271,20.996,9.814
	c0.521,0.619,0.765,1.384,0.732,2.295c0,1.074-0.384,1.994-1.147,2.759c-0.766,0.765-1.685,1.147-2.759,1.147
	s-1.938-0.342-2.588-1.025c-0.651-0.684-1.123-1.172-1.416-1.465c-3.81-3.809-8.415-5.713-13.818-5.713
	c-5.404,0-9.717,1.693-12.938,5.078c-0.781,0.944-1.173,2.067-1.173,3.369c0.099,1.53,0.896,2.572,2.394,3.125l24.022,7.959
	c2.963,1.107,5.029,2.263,6.201,3.467c2.312,2.279,3.467,5.029,3.467,8.252s-1.204,6.039-3.612,8.447
	c-4.688,4.785-10.809,7.178-18.359,7.178c-8.203,0-15.202-3.271-20.996-9.814c-0.488-0.684-0.731-1.448-0.731-2.295
	c0-1.074,0.382-1.994,1.146-2.759c0.766-0.765,1.686-1.147,2.759-1.147c1.074,0,1.938,0.342,2.589,1.025
	c0.649,0.684,1.122,1.172,1.415,1.465c3.81,3.809,8.414,5.713,13.818,5.713c5.403,0,9.717-1.692,12.939-5.078
	c0.78-0.944,1.172-2.067,1.172-3.369c-0.099-1.53-0.896-2.571-2.394-3.125L334.324,119.656z"/>
<path fill="#37393C" d="M380.82,96.219c0-1.074,0.382-1.994,1.146-2.759c0.766-0.765,1.686-1.147,2.759-1.147
	c1.074,0,1.993,0.383,2.76,1.147c0.765,0.765,1.146,1.685,1.146,2.759v46.875c0,1.074-0.383,1.994-1.146,2.759
	c-0.767,0.765-1.686,1.147-2.76,1.147c-1.073,0-1.993-0.382-2.759-1.147s-1.146-1.685-1.146-2.759V96.219z"/>
<path fill="#37393C" d="M428.025,145.926c-0.718,0.716-1.646,1.074-2.783,1.074c-1.141,0-2.067-0.374-2.783-1.123
	c-0.229-0.195-0.439-0.504-0.635-0.928l-21.681-47.217c-0.194-0.456-0.293-0.96-0.293-1.514c0-1.074,0.383-1.994,1.147-2.759
	s1.685-1.147,2.759-1.147s2.002,0.375,2.783,1.123c0.26,0.261,0.504,0.603,0.732,1.025l17.969,39.258L443.21,94.46
	c0.228-0.423,0.488-0.765,0.781-1.025c0.748-0.749,1.66-1.123,2.733-1.123c1.074,0,1.993,0.383,2.76,1.147
	c0.765,0.765,1.146,1.685,1.146,2.759c0,0.554-0.098,1.058-0.293,1.514l-21.68,47.217
	C428.465,145.373,428.253,145.698,428.025,145.926z"/>
<path fill="#37393C" d="M498.328,133.719c1.074,0,1.993,0.383,2.759,1.147c0.765,0.765,1.147,1.685,1.147,2.759
	s-0.375,2.002-1.123,2.783c-5.046,4.395-10.986,6.592-17.822,6.592c-7.553,0-13.998-2.669-19.336-8.008
	c-5.339-5.338-8.008-11.784-8.008-19.336c0-7.552,2.669-13.997,8.008-19.336c5.338-5.338,11.783-8.008,19.336-8.008
	c7.552,0,13.997,2.669,19.336,8.008c5.338,5.339,8.008,11.784,8.008,19.336c0,1.074-0.383,1.994-1.146,2.759
	c-0.767,0.765-1.686,1.147-2.76,1.147H464.1c0.717,3.744,2.507,7.048,5.371,9.912c3.81,3.809,8.414,5.713,13.818,5.713
	c4.883,0,9.082-1.546,12.598-4.639C496.603,133.996,497.416,133.719,498.328,133.719z M502.479,115.75
	c-0.717-3.743-2.507-7.047-5.37-9.912c-3.81-3.809-8.415-5.713-13.818-5.713c-5.404,0-10.01,1.904-13.818,5.713
	c-2.864,2.865-4.654,6.169-5.371,9.912H502.479z"/>
<path fill="#37393C" d="M226.375,186.875c0,0.344-0.123,0.639-0.367,0.883c-0.245,0.244-0.539,0.367-0.883,0.367
	s-0.638-0.123-0.883-0.367c-0.245-0.244-0.367-0.539-0.367-0.883v-15c0-2.416,0.854-4.479,2.563-6.188
	c1.708-1.709,3.771-2.563,6.188-2.563s4.479,0.854,6.188,2.563c1.708,1.709,2.563,3.771,2.563,6.188s-0.854,4.479-2.563,6.188
	c-1.708,1.709-3.771,2.563-6.188,2.563s-4.479-0.854-6.188-2.563c-0.021-0.021-0.042-0.041-0.063-0.063V186.875z M226.375,171.875
	c0,1.729,0.609,3.203,1.828,4.422c1.219,1.219,2.692,1.828,4.422,1.828c1.729,0,3.203-0.609,4.422-1.828
	c1.219-1.219,1.828-2.691,1.828-4.422c0-1.729-0.609-3.203-1.828-4.422c-1.219-1.219-2.693-1.828-4.422-1.828
	s-3.203,0.609-4.422,1.828C226.984,168.672,226.375,170.146,226.375,171.875z"/>
<path fill="#37393C" d="M251.555,164.375c0-0.344,0.123-0.639,0.367-0.883c0.245-0.244,0.539-0.367,0.883-0.367
	c0.344,0,0.638,0.123,0.883,0.367s0.367,0.539,0.367,0.883v1.375c1.75-1.75,3.833-2.625,6.25-2.625c1.219,0,2.338,0.209,3.359,0.625
	c0.188,0.073,0.359,0.184,0.516,0.328c0.24,0.25,0.359,0.547,0.359,0.891s-0.123,0.639-0.367,0.883
	c-0.245,0.246-0.539,0.367-0.883,0.367c-0.198,0-0.38-0.041-0.547-0.125c-0.74-0.313-1.552-0.469-2.438-0.469
	c-1.729,0-3.203,0.609-4.422,1.828c-1.219,1.219-1.828,2.693-1.828,4.422v7.5c0,0.344-0.123,0.639-0.367,0.883
	c-0.245,0.245-0.539,0.367-0.883,0.367c-0.344,0-0.638-0.122-0.883-0.367c-0.245-0.244-0.367-0.539-0.367-0.883L251.555,164.375
	L251.555,164.375z"/>
<path fill="#37393C" d="M291.734,171.875c0,2.417-0.854,4.479-2.563,6.188c-1.708,1.709-3.771,2.563-6.188,2.563
	c-2.416,0-4.479-0.854-6.187-2.563c-1.708-1.707-2.563-3.771-2.563-6.188c0-2.416,0.854-4.479,2.563-6.188
	c1.708-1.709,3.771-2.563,6.187-2.563c2.417,0,4.479,0.854,6.188,2.563C290.881,167.396,291.734,169.459,291.734,171.875z
	 M282.984,165.625c-1.729,0-3.203,0.609-4.421,1.828c-1.218,1.219-1.828,2.693-1.828,4.422s0.609,3.203,1.828,4.422
	c1.219,1.219,2.693,1.828,4.421,1.828c1.729,0,3.203-0.609,4.422-1.828c1.219-1.219,1.828-2.691,1.828-4.422
	c0-1.729-0.609-3.203-1.828-4.422C286.187,166.234,284.714,165.625,282.984,165.625z"/>
<path fill="#37393C" d="M316.915,156.844c0-0.344,0.122-0.638,0.367-0.883c0.245-0.244,0.539-0.367,0.883-0.367
	s0.638,0.123,0.883,0.367c0.245,0.245,0.367,0.539,0.367,0.883v15.031c0,2.417-0.854,4.479-2.563,6.188
	c-1.708,1.709-3.771,2.563-6.188,2.563s-4.479-0.854-6.188-2.563c-1.709-1.707-2.563-3.771-2.563-6.188
	c0-2.416,0.854-4.479,2.563-6.188c1.707-1.709,3.771-2.563,6.188-2.563s4.479,0.854,6.188,2.563
	c0.021,0.021,0.042,0.041,0.063,0.063V156.844z M316.915,171.875c0-1.729-0.609-3.203-1.828-4.422s-2.692-1.828-4.422-1.828
	c-1.73,0-3.203,0.609-4.422,1.828c-1.22,1.219-1.828,2.693-1.828,4.422s0.608,3.203,1.828,4.422
	c1.219,1.219,2.691,1.828,4.422,1.828c1.729,0,3.203-0.609,4.422-1.828S316.915,173.604,316.915,171.875z"/>
<path fill="#37393C" d="M345.845,179.375c0,0.344-0.122,0.639-0.367,0.883c-0.244,0.245-0.538,0.367-0.883,0.367
	c-0.344,0-0.638-0.122-0.883-0.367c-0.245-0.244-0.367-0.539-0.367-0.883v-1.016c-1.563,1.511-3.438,2.266-5.625,2.266
	c-2.238,0-4.152-0.794-5.742-2.383c-1.589-1.588-2.383-3.502-2.383-5.742v-8.125c0-0.344,0.122-0.639,0.367-0.883
	s0.539-0.367,0.883-0.367c0.345,0,0.639,0.123,0.883,0.367c0.245,0.244,0.367,0.539,0.367,0.883v8.125
	c0,1.553,0.55,2.878,1.648,3.977c1.099,1.101,2.425,1.648,3.977,1.648c1.553,0,2.878-0.549,3.978-1.648
	c1.099-1.099,1.647-2.424,1.647-3.977v-8.125c0-0.344,0.122-0.639,0.367-0.883s0.539-0.367,0.883-0.367
	c0.345,0,0.639,0.123,0.883,0.367c0.245,0.244,0.367,0.539,0.367,0.883V179.375z"/>
<path fill="#37393C" d="M369.619,176.344c0.344,0,0.638,0.123,0.883,0.367c0.244,0.245,0.367,0.539,0.367,0.883
	s-0.131,0.651-0.392,0.922c-1.614,1.406-3.516,2.109-5.702,2.109c-2.417,0-4.479-0.854-6.188-2.563s-2.563-3.771-2.563-6.188
	c0-2.416,0.854-4.479,2.563-6.188c1.708-1.707,3.771-2.563,6.188-2.563c2.188,0,4.088,0.703,5.702,2.109
	c0.291,0.261,0.438,0.584,0.438,0.969c0,0.344-0.123,0.639-0.367,0.883c-0.245,0.245-0.539,0.367-0.883,0.367
	c-0.303,0-0.568-0.094-0.797-0.281c-1.167-1.031-2.531-1.547-4.094-1.547c-1.729,0-3.203,0.609-4.423,1.828
	c-1.219,1.219-1.827,2.693-1.827,4.422s0.608,3.203,1.827,4.422c1.22,1.219,2.692,1.828,4.423,1.828c1.563,0,2.922-0.51,4.077-1.531
	C369.072,176.428,369.327,176.344,369.619,176.344z"/>
<path fill="#37393C" d="M389.955,178.125c0.344,0,0.638,0.123,0.883,0.367c0.244,0.244,0.367,0.539,0.367,0.883
	s-0.123,0.639-0.367,0.883c-0.245,0.245-0.539,0.367-0.883,0.367c-4.167,0-6.25-2.083-6.25-6.25v-8.75h-1.25
	c-0.344,0-0.639-0.122-0.883-0.367c-0.245-0.244-0.367-0.539-0.367-0.883s0.122-0.639,0.367-0.883
	c0.244-0.244,0.539-0.367,0.883-0.367h1.25v-6.25c0-0.344,0.122-0.639,0.367-0.883c0.244-0.244,0.539-0.367,0.883-0.367
	s0.638,0.123,0.883,0.367c0.244,0.244,0.367,0.539,0.367,0.883v6.25h2.516c0.345,0,0.639,0.123,0.883,0.367s0.367,0.539,0.367,0.883
	s-0.123,0.639-0.367,0.883c-0.244,0.245-0.538,0.367-0.883,0.367h-2.516v8.75C386.205,176.875,387.455,178.125,389.955,178.125z"/>
<path fill="#37393C" d="M405.447,159.375c0,0.428-0.154,0.795-0.461,1.102c-0.309,0.309-0.676,0.461-1.103,0.461
	c-0.428,0-0.795-0.152-1.102-0.461c-0.309-0.307-0.461-0.674-0.461-1.102c0-0.427,0.152-0.794,0.461-1.102
	c0.307-0.308,0.674-0.461,1.102-0.461c0.427,0,0.794,0.153,1.103,0.461C405.293,158.581,405.447,158.948,405.447,159.375z
	 M402.635,164.375c0-0.344,0.122-0.639,0.367-0.883c0.244-0.244,0.539-0.367,0.883-0.367s0.639,0.123,0.883,0.367
	s0.367,0.539,0.367,0.883v15c0,0.344-0.123,0.639-0.367,0.883c-0.244,0.245-0.539,0.367-0.883,0.367s-0.639-0.122-0.883-0.367
	c-0.245-0.244-0.367-0.539-0.367-0.883V164.375z"/>
<path fill="#37393C" d="M434.065,171.875c0,2.417-0.854,4.479-2.563,6.188c-1.708,1.709-3.771,2.563-6.188,2.563
	s-4.479-0.854-6.188-2.563c-1.708-1.707-2.563-3.771-2.563-6.188c0-2.416,0.854-4.479,2.563-6.188
	c1.708-1.709,3.771-2.563,6.188-2.563s4.479,0.854,6.188,2.563S434.065,169.459,434.065,171.875z M425.315,165.625
	c-1.729,0-3.203,0.609-4.423,1.828c-1.219,1.219-1.827,2.693-1.827,4.422s0.608,3.203,1.827,4.422
	c1.22,1.219,2.692,1.828,4.423,1.828c1.729,0,3.202-0.609,4.422-1.828c1.219-1.219,1.828-2.691,1.828-4.422
	c0-1.729-0.609-3.203-1.828-4.422C428.518,166.234,427.045,165.625,425.315,165.625z"/>
<path fill="#37393C" d="M444.245,164.375c0-0.344,0.122-0.639,0.367-0.883s0.539-0.367,0.883-0.367s0.638,0.123,0.883,0.367
	s0.367,0.539,0.367,0.883v1.016c1.563-1.51,3.438-2.266,5.625-2.266c2.239,0,4.153,0.795,5.742,2.383
	c1.589,1.59,2.383,3.503,2.383,5.742v8.125c0,0.344-0.122,0.639-0.367,0.883c-0.245,0.245-0.539,0.367-0.883,0.367
	s-0.638-0.122-0.883-0.367c-0.245-0.244-0.367-0.539-0.367-0.883v-8.125c0-1.552-0.55-2.877-1.648-3.977s-2.425-1.648-3.977-1.648
	s-2.878,0.55-3.978,1.648c-1.099,1.1-1.647,2.425-1.647,3.977v8.125c0,0.344-0.122,0.639-0.367,0.883
	c-0.245,0.245-0.539,0.367-0.883,0.367s-0.638-0.122-0.883-0.367c-0.245-0.244-0.367-0.539-0.367-0.883V164.375z"/>
<path fill="#37393C" d="M473.769,171.875c-0.947-0.354-1.608-0.725-1.983-1.109c-0.739-0.729-1.109-1.608-1.109-2.641
	s0.386-1.932,1.156-2.703c1.5-1.531,3.458-2.297,5.875-2.297c2.614,0,4.854,1.047,6.719,3.141c0.167,0.198,0.245,0.443,0.234,0.734
	c0,0.344-0.122,0.639-0.367,0.883c-0.245,0.245-0.539,0.367-0.883,0.367s-0.62-0.109-0.828-0.328s-0.359-0.375-0.453-0.469
	c-1.219-1.219-2.691-1.828-4.422-1.828s-3.109,0.542-4.141,1.625c-0.25,0.303-0.375,0.662-0.375,1.078
	c0.03,0.49,0.285,0.822,0.766,1l7.688,2.547c0.948,0.354,1.609,0.725,1.984,1.109c0.739,0.729,1.109,1.608,1.109,2.641
	s-0.387,1.934-1.156,2.703c-1.5,1.531-3.458,2.297-5.875,2.297c-2.625,0-4.864-1.047-6.719-3.141
	c-0.156-0.219-0.234-0.463-0.234-0.734c0-0.344,0.122-0.639,0.367-0.883s0.539-0.367,0.883-0.367s0.62,0.109,0.828,0.328
	s0.359,0.375,0.453,0.469c1.219,1.219,2.691,1.828,4.422,1.828s3.109-0.541,4.141-1.625c0.25-0.302,0.375-0.661,0.375-1.078
	c-0.03-0.488-0.286-0.822-0.766-1L473.769,171.875z"/>
<path fill="#2C87A5" d="M59.25,62c0.832,2.436-1.996,3.339-5.749,5.333c-5.333,2.833-21.856,15.04-24.251,32.417
	c-3.25,23.583,0.25,46,22,69.75c51.083,44.167,195.242,41.211,271.25,40.5c71.334-0.667,252-3.5,252-100.5c0-62.688-58.167-79-92-78
	c-42.337,1.251-67.999,28.5-75.332,32.667c-4.476,2.543-9.499,8.5-13,5.5c-3.266-2.799-0.667-7,4.5-12.333
	C403.349,52.502,438,16,491,19.5s98,29,98,94.5c0,71.5-78.821,105.82-265.321,107.32S79.921,206.482,46,176.667
	C21.59,155.211,15.167,121,18.667,100.333C21.556,83.273,36.79,67.272,45.333,63C50.333,60.5,58.168,58.833,59.25,62z"/>
<path fill="#2C87A5" d="M4.228,70.295c2.684-2.408,6.867-0.509,9.439,2.705c2.096,2.619,4.131,6.946,5.333,11.333
	c0.69,2.518,1.559,8.839-1.966,9.93c-1.78,0.551-3.198-1.459-4.712-5.641c-1.706-4.712-5.441-9.583-6.426-11.479
	C4.911,75.249,2.713,71.654,4.228,70.295z"/>
<path fill="#37393C" d="M21.5,72.167c1.923,2.308,7.061,3.216,10.833-1.5c3.333-4.167,1.114-8.226-1-9.333
	c-3.5-1.833-6.434-0.121-8.667,1.833C20,65.5,19.833,70.167,21.5,72.167z"/>
<path fill="#2C87A5" d="M380.167,84.833c1.923,2.308,7.062,3.216,10.833-1.5c3.334-4.167,1.114-8.226-1-9.333
	c-3.5-1.833-6.434-0.121-8.666,1.833C378.668,78.167,378.5,82.833,380.167,84.833z"/>
</svg>
