<?xml version="1.0" encoding="utf-8"?>
<!-- Generator: Adobe Illustrator 16.0.0, SVG Export Plug-In . SVG Version: 6.00 Build 0)  -->
<!DOCTYPE svg PUBLIC "-//W3C//DTD SVG 1.1//EN" "http://www.w3.org/Graphics/SVG/1.1/DTD/svg11.dtd">
<svg version="1.1" id="Layer_1" xmlns="http://www.w3.org/2000/svg" xmlns:xlink="http://www.w3.org/1999/xlink" x="0px" y="0px"
	 width="82.625px" height="82.625px" viewBox="5.875 0 82.625 82.625" enable-background="new 5.875 0 82.625 82.625"
	 xml:space="preserve">
<path d="M66.216,33.118v-4.24l-8.218,4.75v-2.536c0-2.417-1.958-4.376-4.375-4.376h-4.441v-1.409c0-0.458-0.373-0.83-0.83-0.83
	h-4.99c-0.457,0-0.829,0.372-0.829,0.83v1.409H38.09c-2.417,0-4.375,1.958-4.375,4.376v1.328
	c-9.632,1.114-16.912,6.04-16.912,11.934c0,6.611,9.159,12.004,20.523,12.166v5.002l13.344-7.715l-13.344-7.714v4.917
	c-8.395-0.127-15.855-3.32-15.855-8.197c0-4.161,5.434-7.563,12.244-8.568v5.735c0,2.417,1.958,4.375,4.375,4.375h15.533
	c2.417,0,4.375-1.957,4.375-4.375v-5.885l8.218,4.75v-2.46c4.722,1.347,8.007,3.899,8.007,7.2c0,4.977-7.463,7.023-16.068,7.023
	v5.918c11.604,0,21.044-5.461,21.044-12.172C79.197,39.296,73.828,34.952,66.216,33.118z M45.855,41.183
	c-3.117,0-5.646-2.527-5.646-5.646c0-3.118,2.527-5.646,5.646-5.646s5.646,2.527,5.646,5.646
	C51.502,38.654,48.975,41.183,45.855,41.183z"/>
</svg>
