<?xml version="1.0" encoding="utf-8"?>
<!-- Generator: Adobe Illustrator 16.0.0, SVG Export Plug-In . SVG Version: 6.00 Build 0)  -->
<!DOCTYPE svg PUBLIC "-//W3C//DTD SVG 1.1//EN" "http://www.w3.org/Graphics/SVG/1.1/DTD/svg11.dtd">
<svg version="1.1" id="Layer_1" xmlns="http://www.w3.org/2000/svg" xmlns:xlink="http://www.w3.org/1999/xlink" x="0px" y="0px"
	 width="82.625px" height="82.625px" viewBox="5.875 0 82.625 82.625" enable-background="new 5.875 0 82.625 82.625"
	 xml:space="preserve">
<path fill="#FFFFFF" d="M88.5,70.625c0,6.627-5.373,12-12,12H17.875c-6.627,0-12-5.373-12-12V12c0-6.627,5.373-12,12-12H76.5
	c6.627,0,12,5.373,12,12V70.625z"/>
<path d="M66.216,33.118v-4.24l-8.218,4.75v-2.536c0-2.417-1.958-4.376-4.375-4.376h-4.442v-1.409c0-0.458-0.372-0.83-0.83-0.83
	h-4.989c-0.458,0-0.83,0.372-0.83,0.83v1.409H38.09c-2.417,0-4.375,1.958-4.375,4.376v1.328c-9.632,1.114-16.912,6.04-16.912,11.934
	c0,6.611,9.159,12.004,20.523,12.165v5.003l13.344-7.715l-13.344-7.714v4.917c-8.395-0.127-15.855-3.32-15.855-8.197
	c0-4.161,5.434-7.564,12.244-8.569v5.735c0,2.417,1.958,4.375,4.375,4.375h15.533c2.417,0,4.375-1.958,4.375-4.375v-5.885
	l8.218,4.75v-2.46c4.722,1.347,8.006,3.899,8.006,7.2c0,4.977-7.462,7.023-16.067,7.023v5.918c11.604,0,21.043-5.46,21.043-12.172
	C79.197,39.296,73.828,34.952,66.216,33.118z M45.855,41.183c-3.117,0-5.646-2.527-5.646-5.646c0-3.118,2.527-5.646,5.646-5.646
	c3.119,0,5.647,2.527,5.647,5.646C51.502,38.654,48.975,41.183,45.855,41.183z"/>
</svg>
