<?xml version="1.0" encoding="utf-8"?>
<!-- Generator: Adobe Illustrator 16.0.0, SVG Export Plug-In . SVG Version: 6.00 Build 0)  -->
<!DOCTYPE svg PUBLIC "-//W3C//DTD SVG 1.1//EN" "http://www.w3.org/Graphics/SVG/1.1/DTD/svg11.dtd">
<svg version="1.1" id="Layer_1" xmlns="http://www.w3.org/2000/svg" xmlns:xlink="http://www.w3.org/1999/xlink" x="0px" y="0px"
	 width="70.32px" height="70.32px" viewBox="15 5 70.32 70.32" enable-background="new 15 5 70.32 70.32" xml:space="preserve">
<g>
	<path fill="#FF0000" d="M35.92,40.48L18,21.92c-4-4-4-9.92,0-13.92s9.92-4,13.92,0l17.92,17.92L67.76,8c4-4,10.641-4,14.561,0
		c4,4,4,10.64,0,14.56L64.4,40.48L82.32,58.4c4,4,4,9.92,0,13.92s-9.92,4-13.92,0L50.48,54.4L32.56,72.32c-4,4-10.64,4-14.56,0
		c-4-4-4-10.641,0-14.561L35.92,40.48z"/>
</g>
</svg>
