<?xml version="1.0" encoding="utf-8"?>
<!-- Generator: Adobe Illustrator 16.0.0, SVG Export Plug-In . SVG Version: 6.00 Build 0)  -->
<!DOCTYPE svg PUBLIC "-//W3C//DTD SVG 1.1//EN" "http://www.w3.org/Graphics/SVG/1.1/DTD/svg11.dtd">
<svg version="1.1" id="Layer_1" xmlns="http://www.w3.org/2000/svg" xmlns:xlink="http://www.w3.org/1999/xlink" x="0px" y="0px"
	 width="599.76px" height="599.76px" viewBox="6.12 96.12 599.76 599.76" enable-background="new 6.12 96.12 599.76 599.76"
	 xml:space="preserve">
<g>
	<path fill="#FFFFFF" d="M335.988,396l263.466-263.466c8.567-8.568,8.567-21.42,0-29.988c-8.568-8.568-21.42-8.568-29.988,0
		L306,366.012L42.534,102.546c-8.568-8.568-21.42-8.568-29.988,0c-8.568,8.568-8.568,21.42,0,29.988L276.012,396L12.546,659.466
		c-8.568,8.568-8.568,21.42,0,29.988c4.284,4.284,10.71,6.426,14.994,6.426s10.71-2.142,14.994-6.426L306,425.988l263.466,263.466
		c4.284,4.284,10.71,6.426,14.994,6.426s10.71-2.142,14.994-6.426c8.567-8.568,8.567-21.42,0-29.988L335.988,396z"/>
</g>
</svg>
