<?xml version="1.0" encoding="utf-8"?>
<!-- Generator: Adobe Illustrator 16.0.0, SVG Export Plug-In . SVG Version: 6.00 Build 0)  -->
<!DOCTYPE svg PUBLIC "-//W3C//DTD SVG 1.1//EN" "http://www.w3.org/Graphics/SVG/1.1/DTD/svg11.dtd">
<svg version="1.1" id="Layer_1" xmlns="http://www.w3.org/2000/svg" xmlns:xlink="http://www.w3.org/1999/xlink" x="0px" y="0px"
	 width="339.828px" height="339.708px" viewBox="136.146 226.146 339.828 339.708"
	 enable-background="new 136.146 226.146 339.828 339.708" xml:space="preserve">
<path fill="#FFFFFF" d="M436.647,369.823h-29.524c2.152,8.367,3.467,17.093,3.467,26.177c0,57.733-46.856,104.59-104.59,104.59
	S201.41,453.733,201.41,396c0-9.084,1.315-17.81,3.466-26.177h-29.524v143.796c0,7.172,5.857,13.028,13.029,13.028h235.238
	c7.172,0,13.028-5.856,13.028-13.028V369.823L436.647,369.823z M436.647,278.381c0-7.172-5.856-13.029-13.028-13.029h-39.207
	c-7.172,0-13.028,5.857-13.028,13.029v39.206c0,7.172,5.856,13.029,13.028,13.029h39.207c7.172,0,13.028-5.857,13.028-13.029
	V278.381z M306,330.616c-36.099,0-65.384,29.285-65.384,65.384s29.285,65.384,65.384,65.384s65.384-29.285,65.384-65.384
	S342.099,330.616,306,330.616 M436.647,565.854H175.353c-21.635,0-39.207-17.57-39.207-39.206V265.353
	c0-21.635,17.571-39.207,39.207-39.207h261.415c21.635,0,39.206,17.571,39.206,39.207v261.415
	C475.854,548.283,458.402,565.854,436.647,565.854"/>
</svg>
