<?xml version="1.0" encoding="utf-8"?>
<!-- Generator: Adobe Illustrator 16.0.0, SVG Export Plug-In . SVG Version: 6.00 Build 0)  -->
<!DOCTYPE svg PUBLIC "-//W3C//DTD SVG 1.1//EN" "http://www.w3.org/Graphics/SVG/1.1/DTD/svg11.dtd">
<svg version="1.1" id="Capa_1" xmlns="http://www.w3.org/2000/svg" xmlns:xlink="http://www.w3.org/1999/xlink" x="0px" y="0px"
	 width="430.117px" height="411.001px" viewBox="0 16.116 430.117 411.001" enable-background="new 0 16.116 430.117 411.001"
	 xml:space="preserve">
<g>
	<path id="LinkedIn" fill="#FFFFFF" d="M430.117,268.101v159.017h-92.188V278.751c0-37.271-13.334-62.707-46.702-62.707
		c-25.474,0-40.633,17.142-47.302,33.724c-2.432,5.929-3.058,14.179-3.058,22.478v154.872h-92.219c0,0,1.242-251.285,0-277.319
		h92.209v39.309c-0.187,0.294-0.43,0.611-0.605,0.896h0.605v-0.896c12.252-18.869,34.131-45.824,83.103-45.824
		C384.633,143.282,430.117,182.918,430.117,268.101z M52.183,16.116C20.635,16.116,0,36.809,0,64.021
		c0,26.619,20.038,47.94,50.959,47.94h0.616c32.159,0,52.159-21.317,52.159-47.94C103.128,36.809,83.734,16.116,52.183,16.116z
		 M5.477,427.117h92.184V149.798H5.477V427.117z"/>
</g>
</svg>
